M48
; DRILL file {KiCad 9.0.4} date 2026-02-24T08:42:58-0300
; FORMAT={-:-/ absolute / metric / decimal}
; #@! TF.CreationDate,2026-02-24T08:42:58-03:00
; #@! TF.GenerationSoftware,Kicad,Pcbnew,9.0.4
; #@! TF.FileFunction,Plated,1,2,PTH
FMAT,2
METRIC
; #@! TA.AperFunction,Plated,PTH,ViaDrill
T1C0.800
; #@! TA.AperFunction,Plated,PTH,ComponentDrill
T2C0.800
; #@! TA.AperFunction,Plated,PTH,ComponentDrill
T3C1.000
; #@! TA.AperFunction,Plated,PTH,ViaDrill
T4C3.000
%
G90
G05
T1
X146.75Y-78.625
X146.825Y-71.725
X146.85Y-74.775
X146.85Y-82.425
X148.05Y-103.75
X148.325Y-95.075
X173.2Y-85.675
X173.35Y-95.95
X175.35Y-92.05
X175.425Y-87.675
X177.845Y-93.88
X177.975Y-97.65
X178.05Y-86.325
X178.1Y-102.175
X184.25Y-52.15
X186.875Y-78.0
X186.925Y-82.45
X186.975Y-74.7
X187.0Y-71.575
X192.3Y-52.3
T2
X137.36Y-77.675
X137.385Y-73.375
X142.44Y-77.675
X142.465Y-73.375
T3
X141.925Y-58.33
X141.925Y-60.87
X141.925Y-63.41
X141.925Y-65.95
X142.775Y-88.525
X142.775Y-91.065
X142.775Y-93.605
X142.775Y-96.145
X142.775Y-98.685
X142.775Y-101.225
X151.72Y-53.24
X151.72Y-55.78
X151.72Y-58.32
X151.72Y-60.86
X151.72Y-63.4
X151.72Y-65.94
X151.72Y-68.48
X151.72Y-71.02
X151.72Y-73.56
X151.72Y-76.1
X151.72Y-78.64
X151.72Y-81.18
X151.72Y-83.72
X151.72Y-86.26
X151.72Y-88.8
X151.72Y-91.34
X151.72Y-93.88
X151.72Y-96.42
X151.72Y-98.96
X151.72Y-101.5
X169.5Y-53.24
X169.5Y-55.78
X169.5Y-58.32
X169.5Y-60.86
X169.5Y-63.4
X169.5Y-65.94
X169.5Y-68.48
X169.5Y-71.02
X169.5Y-73.56
X169.5Y-76.1
X169.5Y-78.64
X169.5Y-81.18
X169.5Y-83.72
X169.5Y-86.26
X169.5Y-88.8
X169.5Y-91.34
X169.5Y-93.88
X169.5Y-96.42
X169.5Y-98.96
X169.5Y-101.5
X181.0Y-52.19
X181.0Y-54.73
X181.0Y-57.27
X181.0Y-59.81
X181.05Y-68.545
X181.05Y-71.085
X181.05Y-73.625
X181.05Y-76.165
X181.05Y-78.705
X181.05Y-81.245
X181.05Y-83.785
X181.05Y-86.325
X181.05Y-88.865
X181.05Y-91.405
X181.05Y-93.945
X181.05Y-96.485
X181.05Y-99.025
X181.05Y-101.565
T4
X135.0Y-47.475
X135.0Y-107.5
X192.5Y-107.075
X192.525Y-47.525
M30
