%TF.GenerationSoftware,KiCad,Pcbnew,9.0.4*%
%TF.CreationDate,2026-02-24T08:42:58-03:00*%
%TF.ProjectId,Pcb_Clinicas medicas,5063625f-436c-4696-9e69-636173206d65,rev?*%
%TF.SameCoordinates,Original*%
%TF.FileFunction,Drillmap*%
%TF.FilePolarity,Positive*%
%FSLAX45Y45*%
G04 Gerber Fmt 4.5, Leading zero omitted, Abs format (unit mm)*
G04 Created by KiCad (PCBNEW 9.0.4) date 2026-02-24 08:42:58*
%MOMM*%
%LPD*%
G01*
G04 APERTURE LIST*
%ADD10C,0.200000*%
%ADD11C,0.100000*%
%ADD12C,0.300000*%
G04 APERTURE END LIST*
D10*
D11*
X14635000Y-7822500D02*
X14715000Y-7902500D01*
X14715000Y-7822500D02*
X14635000Y-7902500D01*
X14642500Y-7132500D02*
X14722500Y-7212500D01*
X14722500Y-7132500D02*
X14642500Y-7212500D01*
X14645000Y-7437500D02*
X14725000Y-7517500D01*
X14725000Y-7437500D02*
X14645000Y-7517500D01*
X14645000Y-8202500D02*
X14725000Y-8282500D01*
X14725000Y-8202500D02*
X14645000Y-8282500D01*
X14765000Y-10335000D02*
X14845000Y-10415000D01*
X14845000Y-10335000D02*
X14765000Y-10415000D01*
X14792500Y-9467500D02*
X14872500Y-9547500D01*
X14872500Y-9467500D02*
X14792500Y-9547500D01*
X17280000Y-8527500D02*
X17360000Y-8607500D01*
X17360000Y-8527500D02*
X17280000Y-8607500D01*
X17295000Y-9555000D02*
X17375000Y-9635000D01*
X17375000Y-9555000D02*
X17295000Y-9635000D01*
X17495000Y-9165000D02*
X17575000Y-9245000D01*
X17575000Y-9165000D02*
X17495000Y-9245000D01*
X17502500Y-8727500D02*
X17582500Y-8807500D01*
X17582500Y-8727500D02*
X17502500Y-8807500D01*
X17744500Y-9348000D02*
X17824500Y-9428000D01*
X17824500Y-9348000D02*
X17744500Y-9428000D01*
X17757500Y-9725000D02*
X17837500Y-9805000D01*
X17837500Y-9725000D02*
X17757500Y-9805000D01*
X17765000Y-8592500D02*
X17845000Y-8672500D01*
X17845000Y-8592500D02*
X17765000Y-8672500D01*
X17770000Y-10177500D02*
X17850000Y-10257500D01*
X17850000Y-10177500D02*
X17770000Y-10257500D01*
X18385000Y-5175000D02*
X18465000Y-5255000D01*
X18465000Y-5175000D02*
X18385000Y-5255000D01*
X18647500Y-7760000D02*
X18727500Y-7840000D01*
X18727500Y-7760000D02*
X18647500Y-7840000D01*
X18652500Y-8205000D02*
X18732500Y-8285000D01*
X18732500Y-8205000D02*
X18652500Y-8285000D01*
X18657500Y-7430000D02*
X18737500Y-7510000D01*
X18737500Y-7430000D02*
X18657500Y-7510000D01*
X18660000Y-7117500D02*
X18740000Y-7197500D01*
X18740000Y-7117500D02*
X18660000Y-7197500D01*
X19190000Y-5190000D02*
X19270000Y-5270000D01*
X19270000Y-5190000D02*
X19190000Y-5270000D01*
X13776000Y-7767500D02*
G75*
G02*
X13696000Y-7767500I-40000J0D01*
G01*
X13696000Y-7767500D02*
G75*
G02*
X13776000Y-7767500I40000J0D01*
G01*
X13778500Y-7337500D02*
G75*
G02*
X13698500Y-7337500I-40000J0D01*
G01*
X13698500Y-7337500D02*
G75*
G02*
X13778500Y-7337500I40000J0D01*
G01*
X14284000Y-7767500D02*
G75*
G02*
X14204000Y-7767500I-40000J0D01*
G01*
X14204000Y-7767500D02*
G75*
G02*
X14284000Y-7767500I40000J0D01*
G01*
X14286500Y-7337500D02*
G75*
G02*
X14206500Y-7337500I-40000J0D01*
G01*
X14206500Y-7337500D02*
G75*
G02*
X14286500Y-7337500I40000J0D01*
G01*
X14192500Y-5783000D02*
X14192500Y-5883000D01*
X14142500Y-5833000D02*
X14242500Y-5833000D01*
X14192500Y-6037000D02*
X14192500Y-6137000D01*
X14142500Y-6087000D02*
X14242500Y-6087000D01*
X14192500Y-6291000D02*
X14192500Y-6391000D01*
X14142500Y-6341000D02*
X14242500Y-6341000D01*
X14192500Y-6545000D02*
X14192500Y-6645000D01*
X14142500Y-6595000D02*
X14242500Y-6595000D01*
X14277500Y-8802500D02*
X14277500Y-8902500D01*
X14227500Y-8852500D02*
X14327500Y-8852500D01*
X14277500Y-9056500D02*
X14277500Y-9156500D01*
X14227500Y-9106500D02*
X14327500Y-9106500D01*
X14277500Y-9310500D02*
X14277500Y-9410500D01*
X14227500Y-9360500D02*
X14327500Y-9360500D01*
X14277500Y-9564500D02*
X14277500Y-9664500D01*
X14227500Y-9614500D02*
X14327500Y-9614500D01*
X14277500Y-9818500D02*
X14277500Y-9918500D01*
X14227500Y-9868500D02*
X14327500Y-9868500D01*
X14277500Y-10072500D02*
X14277500Y-10172500D01*
X14227500Y-10122500D02*
X14327500Y-10122500D01*
X15172000Y-5274000D02*
X15172000Y-5374000D01*
X15122000Y-5324000D02*
X15222000Y-5324000D01*
X15172000Y-5528000D02*
X15172000Y-5628000D01*
X15122000Y-5578000D02*
X15222000Y-5578000D01*
X15172000Y-5782000D02*
X15172000Y-5882000D01*
X15122000Y-5832000D02*
X15222000Y-5832000D01*
X15172000Y-6036000D02*
X15172000Y-6136000D01*
X15122000Y-6086000D02*
X15222000Y-6086000D01*
X15172000Y-6290000D02*
X15172000Y-6390000D01*
X15122000Y-6340000D02*
X15222000Y-6340000D01*
X15172000Y-6544000D02*
X15172000Y-6644000D01*
X15122000Y-6594000D02*
X15222000Y-6594000D01*
X15172000Y-6798000D02*
X15172000Y-6898000D01*
X15122000Y-6848000D02*
X15222000Y-6848000D01*
X15172000Y-7052000D02*
X15172000Y-7152000D01*
X15122000Y-7102000D02*
X15222000Y-7102000D01*
X15172000Y-7306000D02*
X15172000Y-7406000D01*
X15122000Y-7356000D02*
X15222000Y-7356000D01*
X15172000Y-7560000D02*
X15172000Y-7660000D01*
X15122000Y-7610000D02*
X15222000Y-7610000D01*
X15172000Y-7814000D02*
X15172000Y-7914000D01*
X15122000Y-7864000D02*
X15222000Y-7864000D01*
X15172000Y-8068000D02*
X15172000Y-8168000D01*
X15122000Y-8118000D02*
X15222000Y-8118000D01*
X15172000Y-8322000D02*
X15172000Y-8422000D01*
X15122000Y-8372000D02*
X15222000Y-8372000D01*
X15172000Y-8576000D02*
X15172000Y-8676000D01*
X15122000Y-8626000D02*
X15222000Y-8626000D01*
X15172000Y-8830000D02*
X15172000Y-8930000D01*
X15122000Y-8880000D02*
X15222000Y-8880000D01*
X15172000Y-9084000D02*
X15172000Y-9184000D01*
X15122000Y-9134000D02*
X15222000Y-9134000D01*
X15172000Y-9338000D02*
X15172000Y-9438000D01*
X15122000Y-9388000D02*
X15222000Y-9388000D01*
X15172000Y-9592000D02*
X15172000Y-9692000D01*
X15122000Y-9642000D02*
X15222000Y-9642000D01*
X15172000Y-9846000D02*
X15172000Y-9946000D01*
X15122000Y-9896000D02*
X15222000Y-9896000D01*
X15172000Y-10100000D02*
X15172000Y-10200000D01*
X15122000Y-10150000D02*
X15222000Y-10150000D01*
X16950000Y-5274000D02*
X16950000Y-5374000D01*
X16900000Y-5324000D02*
X17000000Y-5324000D01*
X16950000Y-5528000D02*
X16950000Y-5628000D01*
X16900000Y-5578000D02*
X17000000Y-5578000D01*
X16950000Y-5782000D02*
X16950000Y-5882000D01*
X16900000Y-5832000D02*
X17000000Y-5832000D01*
X16950000Y-6036000D02*
X16950000Y-6136000D01*
X16900000Y-6086000D02*
X17000000Y-6086000D01*
X16950000Y-6290000D02*
X16950000Y-6390000D01*
X16900000Y-6340000D02*
X17000000Y-6340000D01*
X16950000Y-6544000D02*
X16950000Y-6644000D01*
X16900000Y-6594000D02*
X17000000Y-6594000D01*
X16950000Y-6798000D02*
X16950000Y-6898000D01*
X16900000Y-6848000D02*
X17000000Y-6848000D01*
X16950000Y-7052000D02*
X16950000Y-7152000D01*
X16900000Y-7102000D02*
X17000000Y-7102000D01*
X16950000Y-7306000D02*
X16950000Y-7406000D01*
X16900000Y-7356000D02*
X17000000Y-7356000D01*
X16950000Y-7560000D02*
X16950000Y-7660000D01*
X16900000Y-7610000D02*
X17000000Y-7610000D01*
X16950000Y-7814000D02*
X16950000Y-7914000D01*
X16900000Y-7864000D02*
X17000000Y-7864000D01*
X16950000Y-8068000D02*
X16950000Y-8168000D01*
X16900000Y-8118000D02*
X17000000Y-8118000D01*
X16950000Y-8322000D02*
X16950000Y-8422000D01*
X16900000Y-8372000D02*
X17000000Y-8372000D01*
X16950000Y-8576000D02*
X16950000Y-8676000D01*
X16900000Y-8626000D02*
X17000000Y-8626000D01*
X16950000Y-8830000D02*
X16950000Y-8930000D01*
X16900000Y-8880000D02*
X17000000Y-8880000D01*
X16950000Y-9084000D02*
X16950000Y-9184000D01*
X16900000Y-9134000D02*
X17000000Y-9134000D01*
X16950000Y-9338000D02*
X16950000Y-9438000D01*
X16900000Y-9388000D02*
X17000000Y-9388000D01*
X16950000Y-9592000D02*
X16950000Y-9692000D01*
X16900000Y-9642000D02*
X17000000Y-9642000D01*
X16950000Y-9846000D02*
X16950000Y-9946000D01*
X16900000Y-9896000D02*
X17000000Y-9896000D01*
X16950000Y-10100000D02*
X16950000Y-10200000D01*
X16900000Y-10150000D02*
X17000000Y-10150000D01*
X18100000Y-5169000D02*
X18100000Y-5269000D01*
X18050000Y-5219000D02*
X18150000Y-5219000D01*
X18100000Y-5423000D02*
X18100000Y-5523000D01*
X18050000Y-5473000D02*
X18150000Y-5473000D01*
X18100000Y-5677000D02*
X18100000Y-5777000D01*
X18050000Y-5727000D02*
X18150000Y-5727000D01*
X18100000Y-5931000D02*
X18100000Y-6031000D01*
X18050000Y-5981000D02*
X18150000Y-5981000D01*
X18105000Y-6804500D02*
X18105000Y-6904500D01*
X18055000Y-6854500D02*
X18155000Y-6854500D01*
X18105000Y-7058500D02*
X18105000Y-7158500D01*
X18055000Y-7108500D02*
X18155000Y-7108500D01*
X18105000Y-7312500D02*
X18105000Y-7412500D01*
X18055000Y-7362500D02*
X18155000Y-7362500D01*
X18105000Y-7566500D02*
X18105000Y-7666500D01*
X18055000Y-7616500D02*
X18155000Y-7616500D01*
X18105000Y-7820500D02*
X18105000Y-7920500D01*
X18055000Y-7870500D02*
X18155000Y-7870500D01*
X18105000Y-8074500D02*
X18105000Y-8174500D01*
X18055000Y-8124500D02*
X18155000Y-8124500D01*
X18105000Y-8328500D02*
X18105000Y-8428500D01*
X18055000Y-8378500D02*
X18155000Y-8378500D01*
X18105000Y-8582500D02*
X18105000Y-8682500D01*
X18055000Y-8632500D02*
X18155000Y-8632500D01*
X18105000Y-8836500D02*
X18105000Y-8936500D01*
X18055000Y-8886500D02*
X18155000Y-8886500D01*
X18105000Y-9090500D02*
X18105000Y-9190500D01*
X18055000Y-9140500D02*
X18155000Y-9140500D01*
X18105000Y-9344500D02*
X18105000Y-9444500D01*
X18055000Y-9394500D02*
X18155000Y-9394500D01*
X18105000Y-9598500D02*
X18105000Y-9698500D01*
X18055000Y-9648500D02*
X18155000Y-9648500D01*
X18105000Y-9852500D02*
X18105000Y-9952500D01*
X18055000Y-9902500D02*
X18155000Y-9902500D01*
X18105000Y-10106500D02*
X18105000Y-10206500D01*
X18055000Y-10156500D02*
X18155000Y-10156500D01*
D12*
X13606067Y-4853567D02*
X13606067Y-4641433D01*
X13393933Y-4641433D01*
X13393933Y-4853567D01*
X13606067Y-4853567D01*
X13606067Y-10856067D02*
X13606067Y-10643933D01*
X13393933Y-10643933D01*
X13393933Y-10856067D01*
X13606067Y-10856067D01*
X19356067Y-10813567D02*
X19356067Y-10601433D01*
X19143933Y-10601433D01*
X19143933Y-10813567D01*
X19356067Y-10813567D01*
X19358567Y-4858567D02*
X19358567Y-4646433D01*
X19146433Y-4646433D01*
X19146433Y-4858567D01*
X19358567Y-4858567D01*
D10*
X260777Y-311484D02*
X260777Y-111484D01*
X260777Y-111484D02*
X308396Y-111484D01*
X308396Y-111484D02*
X336967Y-121008D01*
X336967Y-121008D02*
X356015Y-140055D01*
X356015Y-140055D02*
X365539Y-159103D01*
X365539Y-159103D02*
X375062Y-197198D01*
X375062Y-197198D02*
X375062Y-225769D01*
X375062Y-225769D02*
X365539Y-263865D01*
X365539Y-263865D02*
X356015Y-282912D01*
X356015Y-282912D02*
X336967Y-301960D01*
X336967Y-301960D02*
X308396Y-311484D01*
X308396Y-311484D02*
X260777Y-311484D01*
X460777Y-311484D02*
X460777Y-178150D01*
X460777Y-216246D02*
X470301Y-197198D01*
X470301Y-197198D02*
X479824Y-187674D01*
X479824Y-187674D02*
X498872Y-178150D01*
X498872Y-178150D02*
X517920Y-178150D01*
X584586Y-311484D02*
X584586Y-178150D01*
X584586Y-111484D02*
X575063Y-121008D01*
X575063Y-121008D02*
X584586Y-130531D01*
X584586Y-130531D02*
X594110Y-121008D01*
X594110Y-121008D02*
X584586Y-111484D01*
X584586Y-111484D02*
X584586Y-130531D01*
X708396Y-311484D02*
X689348Y-301960D01*
X689348Y-301960D02*
X679824Y-282912D01*
X679824Y-282912D02*
X679824Y-111484D01*
X813158Y-311484D02*
X794110Y-301960D01*
X794110Y-301960D02*
X784586Y-282912D01*
X784586Y-282912D02*
X784586Y-111484D01*
X1041729Y-311484D02*
X1041729Y-111484D01*
X1041729Y-111484D02*
X1108396Y-254341D01*
X1108396Y-254341D02*
X1175063Y-111484D01*
X1175063Y-111484D02*
X1175063Y-311484D01*
X1356015Y-311484D02*
X1356015Y-206722D01*
X1356015Y-206722D02*
X1346491Y-187674D01*
X1346491Y-187674D02*
X1327444Y-178150D01*
X1327444Y-178150D02*
X1289348Y-178150D01*
X1289348Y-178150D02*
X1270301Y-187674D01*
X1356015Y-301960D02*
X1336967Y-311484D01*
X1336967Y-311484D02*
X1289348Y-311484D01*
X1289348Y-311484D02*
X1270301Y-301960D01*
X1270301Y-301960D02*
X1260777Y-282912D01*
X1260777Y-282912D02*
X1260777Y-263865D01*
X1260777Y-263865D02*
X1270301Y-244817D01*
X1270301Y-244817D02*
X1289348Y-235293D01*
X1289348Y-235293D02*
X1336967Y-235293D01*
X1336967Y-235293D02*
X1356015Y-225769D01*
X1451253Y-178150D02*
X1451253Y-378150D01*
X1451253Y-187674D02*
X1470301Y-178150D01*
X1470301Y-178150D02*
X1508396Y-178150D01*
X1508396Y-178150D02*
X1527443Y-187674D01*
X1527443Y-187674D02*
X1536967Y-197198D01*
X1536967Y-197198D02*
X1546491Y-216246D01*
X1546491Y-216246D02*
X1546491Y-273389D01*
X1546491Y-273389D02*
X1536967Y-292436D01*
X1536967Y-292436D02*
X1527443Y-301960D01*
X1527443Y-301960D02*
X1508396Y-311484D01*
X1508396Y-311484D02*
X1470301Y-311484D01*
X1470301Y-311484D02*
X1451253Y-301960D01*
X1632205Y-292436D02*
X1641729Y-301960D01*
X1641729Y-301960D02*
X1632205Y-311484D01*
X1632205Y-311484D02*
X1622682Y-301960D01*
X1622682Y-301960D02*
X1632205Y-292436D01*
X1632205Y-292436D02*
X1632205Y-311484D01*
X1632205Y-187674D02*
X1641729Y-197198D01*
X1641729Y-197198D02*
X1632205Y-206722D01*
X1632205Y-206722D02*
X1622682Y-197198D01*
X1622682Y-197198D02*
X1632205Y-187674D01*
X1632205Y-187674D02*
X1632205Y-206722D01*
D11*
X-80000Y-600000D02*
X0Y-680000D01*
X0Y-600000D02*
X-80000Y-680000D01*
D10*
X298872Y-531484D02*
X317920Y-531484D01*
X317920Y-531484D02*
X336967Y-541008D01*
X336967Y-541008D02*
X346491Y-550531D01*
X346491Y-550531D02*
X356015Y-569579D01*
X356015Y-569579D02*
X365539Y-607674D01*
X365539Y-607674D02*
X365539Y-655293D01*
X365539Y-655293D02*
X356015Y-693389D01*
X356015Y-693389D02*
X346491Y-712436D01*
X346491Y-712436D02*
X336967Y-721960D01*
X336967Y-721960D02*
X317920Y-731484D01*
X317920Y-731484D02*
X298872Y-731484D01*
X298872Y-731484D02*
X279824Y-721960D01*
X279824Y-721960D02*
X270301Y-712436D01*
X270301Y-712436D02*
X260777Y-693389D01*
X260777Y-693389D02*
X251253Y-655293D01*
X251253Y-655293D02*
X251253Y-607674D01*
X251253Y-607674D02*
X260777Y-569579D01*
X260777Y-569579D02*
X270301Y-550531D01*
X270301Y-550531D02*
X279824Y-541008D01*
X279824Y-541008D02*
X298872Y-531484D01*
X451253Y-712436D02*
X460777Y-721960D01*
X460777Y-721960D02*
X451253Y-731484D01*
X451253Y-731484D02*
X441729Y-721960D01*
X441729Y-721960D02*
X451253Y-712436D01*
X451253Y-712436D02*
X451253Y-731484D01*
X575063Y-617198D02*
X556015Y-607674D01*
X556015Y-607674D02*
X546491Y-598150D01*
X546491Y-598150D02*
X536967Y-579103D01*
X536967Y-579103D02*
X536967Y-569579D01*
X536967Y-569579D02*
X546491Y-550531D01*
X546491Y-550531D02*
X556015Y-541008D01*
X556015Y-541008D02*
X575063Y-531484D01*
X575063Y-531484D02*
X613158Y-531484D01*
X613158Y-531484D02*
X632205Y-541008D01*
X632205Y-541008D02*
X641729Y-550531D01*
X641729Y-550531D02*
X651253Y-569579D01*
X651253Y-569579D02*
X651253Y-579103D01*
X651253Y-579103D02*
X641729Y-598150D01*
X641729Y-598150D02*
X632205Y-607674D01*
X632205Y-607674D02*
X613158Y-617198D01*
X613158Y-617198D02*
X575063Y-617198D01*
X575063Y-617198D02*
X556015Y-626722D01*
X556015Y-626722D02*
X546491Y-636246D01*
X546491Y-636246D02*
X536967Y-655293D01*
X536967Y-655293D02*
X536967Y-693389D01*
X536967Y-693389D02*
X546491Y-712436D01*
X546491Y-712436D02*
X556015Y-721960D01*
X556015Y-721960D02*
X575063Y-731484D01*
X575063Y-731484D02*
X613158Y-731484D01*
X613158Y-731484D02*
X632205Y-721960D01*
X632205Y-721960D02*
X641729Y-712436D01*
X641729Y-712436D02*
X651253Y-693389D01*
X651253Y-693389D02*
X651253Y-655293D01*
X651253Y-655293D02*
X641729Y-636246D01*
X641729Y-636246D02*
X632205Y-626722D01*
X632205Y-626722D02*
X613158Y-617198D01*
X775062Y-531484D02*
X794110Y-531484D01*
X794110Y-531484D02*
X813158Y-541008D01*
X813158Y-541008D02*
X822682Y-550531D01*
X822682Y-550531D02*
X832205Y-569579D01*
X832205Y-569579D02*
X841729Y-607674D01*
X841729Y-607674D02*
X841729Y-655293D01*
X841729Y-655293D02*
X832205Y-693389D01*
X832205Y-693389D02*
X822682Y-712436D01*
X822682Y-712436D02*
X813158Y-721960D01*
X813158Y-721960D02*
X794110Y-731484D01*
X794110Y-731484D02*
X775062Y-731484D01*
X775062Y-731484D02*
X756015Y-721960D01*
X756015Y-721960D02*
X746491Y-712436D01*
X746491Y-712436D02*
X736967Y-693389D01*
X736967Y-693389D02*
X727443Y-655293D01*
X727443Y-655293D02*
X727443Y-607674D01*
X727443Y-607674D02*
X736967Y-569579D01*
X736967Y-569579D02*
X746491Y-550531D01*
X746491Y-550531D02*
X756015Y-541008D01*
X756015Y-541008D02*
X775062Y-531484D01*
X965539Y-531484D02*
X984586Y-531484D01*
X984586Y-531484D02*
X1003634Y-541008D01*
X1003634Y-541008D02*
X1013158Y-550531D01*
X1013158Y-550531D02*
X1022682Y-569579D01*
X1022682Y-569579D02*
X1032205Y-607674D01*
X1032205Y-607674D02*
X1032205Y-655293D01*
X1032205Y-655293D02*
X1022682Y-693389D01*
X1022682Y-693389D02*
X1013158Y-712436D01*
X1013158Y-712436D02*
X1003634Y-721960D01*
X1003634Y-721960D02*
X984586Y-731484D01*
X984586Y-731484D02*
X965539Y-731484D01*
X965539Y-731484D02*
X946491Y-721960D01*
X946491Y-721960D02*
X936967Y-712436D01*
X936967Y-712436D02*
X927443Y-693389D01*
X927443Y-693389D02*
X917920Y-655293D01*
X917920Y-655293D02*
X917920Y-607674D01*
X917920Y-607674D02*
X927443Y-569579D01*
X927443Y-569579D02*
X936967Y-550531D01*
X936967Y-550531D02*
X946491Y-541008D01*
X946491Y-541008D02*
X965539Y-531484D01*
X1117920Y-731484D02*
X1117920Y-598150D01*
X1117920Y-617198D02*
X1127444Y-607674D01*
X1127444Y-607674D02*
X1146491Y-598150D01*
X1146491Y-598150D02*
X1175063Y-598150D01*
X1175063Y-598150D02*
X1194110Y-607674D01*
X1194110Y-607674D02*
X1203634Y-626722D01*
X1203634Y-626722D02*
X1203634Y-731484D01*
X1203634Y-626722D02*
X1213158Y-607674D01*
X1213158Y-607674D02*
X1232205Y-598150D01*
X1232205Y-598150D02*
X1260777Y-598150D01*
X1260777Y-598150D02*
X1279825Y-607674D01*
X1279825Y-607674D02*
X1289348Y-626722D01*
X1289348Y-626722D02*
X1289348Y-731484D01*
X1384586Y-731484D02*
X1384586Y-598150D01*
X1384586Y-617198D02*
X1394110Y-607674D01*
X1394110Y-607674D02*
X1413158Y-598150D01*
X1413158Y-598150D02*
X1441729Y-598150D01*
X1441729Y-598150D02*
X1460777Y-607674D01*
X1460777Y-607674D02*
X1470301Y-626722D01*
X1470301Y-626722D02*
X1470301Y-731484D01*
X1470301Y-626722D02*
X1479824Y-607674D01*
X1479824Y-607674D02*
X1498872Y-598150D01*
X1498872Y-598150D02*
X1527443Y-598150D01*
X1527443Y-598150D02*
X1546491Y-607674D01*
X1546491Y-607674D02*
X1556015Y-626722D01*
X1556015Y-626722D02*
X1556015Y-731484D01*
X1946491Y-521960D02*
X1775063Y-779103D01*
X2203634Y-531484D02*
X2222682Y-531484D01*
X2222682Y-531484D02*
X2241729Y-541008D01*
X2241729Y-541008D02*
X2251253Y-550531D01*
X2251253Y-550531D02*
X2260777Y-569579D01*
X2260777Y-569579D02*
X2270301Y-607674D01*
X2270301Y-607674D02*
X2270301Y-655293D01*
X2270301Y-655293D02*
X2260777Y-693389D01*
X2260777Y-693389D02*
X2251253Y-712436D01*
X2251253Y-712436D02*
X2241729Y-721960D01*
X2241729Y-721960D02*
X2222682Y-731484D01*
X2222682Y-731484D02*
X2203634Y-731484D01*
X2203634Y-731484D02*
X2184587Y-721960D01*
X2184587Y-721960D02*
X2175063Y-712436D01*
X2175063Y-712436D02*
X2165539Y-693389D01*
X2165539Y-693389D02*
X2156015Y-655293D01*
X2156015Y-655293D02*
X2156015Y-607674D01*
X2156015Y-607674D02*
X2165539Y-569579D01*
X2165539Y-569579D02*
X2175063Y-550531D01*
X2175063Y-550531D02*
X2184587Y-541008D01*
X2184587Y-541008D02*
X2203634Y-531484D01*
X2356015Y-712436D02*
X2365539Y-721960D01*
X2365539Y-721960D02*
X2356015Y-731484D01*
X2356015Y-731484D02*
X2346491Y-721960D01*
X2346491Y-721960D02*
X2356015Y-712436D01*
X2356015Y-712436D02*
X2356015Y-731484D01*
X2489348Y-531484D02*
X2508396Y-531484D01*
X2508396Y-531484D02*
X2527444Y-541008D01*
X2527444Y-541008D02*
X2536968Y-550531D01*
X2536968Y-550531D02*
X2546491Y-569579D01*
X2546491Y-569579D02*
X2556015Y-607674D01*
X2556015Y-607674D02*
X2556015Y-655293D01*
X2556015Y-655293D02*
X2546491Y-693389D01*
X2546491Y-693389D02*
X2536968Y-712436D01*
X2536968Y-712436D02*
X2527444Y-721960D01*
X2527444Y-721960D02*
X2508396Y-731484D01*
X2508396Y-731484D02*
X2489348Y-731484D01*
X2489348Y-731484D02*
X2470301Y-721960D01*
X2470301Y-721960D02*
X2460777Y-712436D01*
X2460777Y-712436D02*
X2451253Y-693389D01*
X2451253Y-693389D02*
X2441729Y-655293D01*
X2441729Y-655293D02*
X2441729Y-607674D01*
X2441729Y-607674D02*
X2451253Y-569579D01*
X2451253Y-569579D02*
X2460777Y-550531D01*
X2460777Y-550531D02*
X2470301Y-541008D01*
X2470301Y-541008D02*
X2489348Y-531484D01*
X2622682Y-531484D02*
X2746491Y-531484D01*
X2746491Y-531484D02*
X2679825Y-607674D01*
X2679825Y-607674D02*
X2708396Y-607674D01*
X2708396Y-607674D02*
X2727444Y-617198D01*
X2727444Y-617198D02*
X2736968Y-626722D01*
X2736968Y-626722D02*
X2746491Y-645770D01*
X2746491Y-645770D02*
X2746491Y-693389D01*
X2746491Y-693389D02*
X2736968Y-712436D01*
X2736968Y-712436D02*
X2727444Y-721960D01*
X2727444Y-721960D02*
X2708396Y-731484D01*
X2708396Y-731484D02*
X2651253Y-731484D01*
X2651253Y-731484D02*
X2632206Y-721960D01*
X2632206Y-721960D02*
X2622682Y-712436D01*
X2936967Y-731484D02*
X2822682Y-731484D01*
X2879825Y-731484D02*
X2879825Y-531484D01*
X2879825Y-531484D02*
X2860777Y-560055D01*
X2860777Y-560055D02*
X2841729Y-579103D01*
X2841729Y-579103D02*
X2822682Y-588627D01*
X3117920Y-531484D02*
X3022682Y-531484D01*
X3022682Y-531484D02*
X3013158Y-626722D01*
X3013158Y-626722D02*
X3022682Y-617198D01*
X3022682Y-617198D02*
X3041729Y-607674D01*
X3041729Y-607674D02*
X3089348Y-607674D01*
X3089348Y-607674D02*
X3108396Y-617198D01*
X3108396Y-617198D02*
X3117920Y-626722D01*
X3117920Y-626722D02*
X3127444Y-645770D01*
X3127444Y-645770D02*
X3127444Y-693389D01*
X3127444Y-693389D02*
X3117920Y-712436D01*
X3117920Y-712436D02*
X3108396Y-721960D01*
X3108396Y-721960D02*
X3089348Y-731484D01*
X3089348Y-731484D02*
X3041729Y-731484D01*
X3041729Y-731484D02*
X3022682Y-721960D01*
X3022682Y-721960D02*
X3013158Y-712436D01*
X3203634Y-531484D02*
X3203634Y-569579D01*
X3279825Y-531484D02*
X3279825Y-569579D01*
X3575063Y-807674D02*
X3565539Y-798150D01*
X3565539Y-798150D02*
X3546491Y-769579D01*
X3546491Y-769579D02*
X3536968Y-750531D01*
X3536968Y-750531D02*
X3527444Y-721960D01*
X3527444Y-721960D02*
X3517920Y-674341D01*
X3517920Y-674341D02*
X3517920Y-636246D01*
X3517920Y-636246D02*
X3527444Y-588627D01*
X3527444Y-588627D02*
X3536968Y-560055D01*
X3536968Y-560055D02*
X3546491Y-541008D01*
X3546491Y-541008D02*
X3565539Y-512436D01*
X3565539Y-512436D02*
X3575063Y-502912D01*
X3641729Y-550531D02*
X3651253Y-541008D01*
X3651253Y-541008D02*
X3670301Y-531484D01*
X3670301Y-531484D02*
X3717920Y-531484D01*
X3717920Y-531484D02*
X3736968Y-541008D01*
X3736968Y-541008D02*
X3746491Y-550531D01*
X3746491Y-550531D02*
X3756015Y-569579D01*
X3756015Y-569579D02*
X3756015Y-588627D01*
X3756015Y-588627D02*
X3746491Y-617198D01*
X3746491Y-617198D02*
X3632206Y-731484D01*
X3632206Y-731484D02*
X3756015Y-731484D01*
X3879825Y-531484D02*
X3898872Y-531484D01*
X3898872Y-531484D02*
X3917920Y-541008D01*
X3917920Y-541008D02*
X3927444Y-550531D01*
X3927444Y-550531D02*
X3936968Y-569579D01*
X3936968Y-569579D02*
X3946491Y-607674D01*
X3946491Y-607674D02*
X3946491Y-655293D01*
X3946491Y-655293D02*
X3936968Y-693389D01*
X3936968Y-693389D02*
X3927444Y-712436D01*
X3927444Y-712436D02*
X3917920Y-721960D01*
X3917920Y-721960D02*
X3898872Y-731484D01*
X3898872Y-731484D02*
X3879825Y-731484D01*
X3879825Y-731484D02*
X3860777Y-721960D01*
X3860777Y-721960D02*
X3851253Y-712436D01*
X3851253Y-712436D02*
X3841729Y-693389D01*
X3841729Y-693389D02*
X3832206Y-655293D01*
X3832206Y-655293D02*
X3832206Y-607674D01*
X3832206Y-607674D02*
X3841729Y-569579D01*
X3841729Y-569579D02*
X3851253Y-550531D01*
X3851253Y-550531D02*
X3860777Y-541008D01*
X3860777Y-541008D02*
X3879825Y-531484D01*
X4184587Y-731484D02*
X4184587Y-531484D01*
X4270301Y-731484D02*
X4270301Y-626722D01*
X4270301Y-626722D02*
X4260777Y-607674D01*
X4260777Y-607674D02*
X4241730Y-598150D01*
X4241730Y-598150D02*
X4213158Y-598150D01*
X4213158Y-598150D02*
X4194110Y-607674D01*
X4194110Y-607674D02*
X4184587Y-617198D01*
X4394111Y-731484D02*
X4375063Y-721960D01*
X4375063Y-721960D02*
X4365539Y-712436D01*
X4365539Y-712436D02*
X4356015Y-693389D01*
X4356015Y-693389D02*
X4356015Y-636246D01*
X4356015Y-636246D02*
X4365539Y-617198D01*
X4365539Y-617198D02*
X4375063Y-607674D01*
X4375063Y-607674D02*
X4394111Y-598150D01*
X4394111Y-598150D02*
X4422682Y-598150D01*
X4422682Y-598150D02*
X4441730Y-607674D01*
X4441730Y-607674D02*
X4451253Y-617198D01*
X4451253Y-617198D02*
X4460777Y-636246D01*
X4460777Y-636246D02*
X4460777Y-693389D01*
X4460777Y-693389D02*
X4451253Y-712436D01*
X4451253Y-712436D02*
X4441730Y-721960D01*
X4441730Y-721960D02*
X4422682Y-731484D01*
X4422682Y-731484D02*
X4394111Y-731484D01*
X4575063Y-731484D02*
X4556015Y-721960D01*
X4556015Y-721960D02*
X4546492Y-702912D01*
X4546492Y-702912D02*
X4546492Y-531484D01*
X4727444Y-721960D02*
X4708396Y-731484D01*
X4708396Y-731484D02*
X4670301Y-731484D01*
X4670301Y-731484D02*
X4651253Y-721960D01*
X4651253Y-721960D02*
X4641730Y-702912D01*
X4641730Y-702912D02*
X4641730Y-626722D01*
X4641730Y-626722D02*
X4651253Y-607674D01*
X4651253Y-607674D02*
X4670301Y-598150D01*
X4670301Y-598150D02*
X4708396Y-598150D01*
X4708396Y-598150D02*
X4727444Y-607674D01*
X4727444Y-607674D02*
X4736968Y-626722D01*
X4736968Y-626722D02*
X4736968Y-645770D01*
X4736968Y-645770D02*
X4641730Y-664817D01*
X4813158Y-721960D02*
X4832206Y-731484D01*
X4832206Y-731484D02*
X4870301Y-731484D01*
X4870301Y-731484D02*
X4889349Y-721960D01*
X4889349Y-721960D02*
X4898873Y-702912D01*
X4898873Y-702912D02*
X4898873Y-693389D01*
X4898873Y-693389D02*
X4889349Y-674341D01*
X4889349Y-674341D02*
X4870301Y-664817D01*
X4870301Y-664817D02*
X4841730Y-664817D01*
X4841730Y-664817D02*
X4822682Y-655293D01*
X4822682Y-655293D02*
X4813158Y-636246D01*
X4813158Y-636246D02*
X4813158Y-626722D01*
X4813158Y-626722D02*
X4822682Y-607674D01*
X4822682Y-607674D02*
X4841730Y-598150D01*
X4841730Y-598150D02*
X4870301Y-598150D01*
X4870301Y-598150D02*
X4889349Y-607674D01*
X4965539Y-807674D02*
X4975063Y-798150D01*
X4975063Y-798150D02*
X4994111Y-769579D01*
X4994111Y-769579D02*
X5003634Y-750531D01*
X5003634Y-750531D02*
X5013158Y-721960D01*
X5013158Y-721960D02*
X5022682Y-674341D01*
X5022682Y-674341D02*
X5022682Y-636246D01*
X5022682Y-636246D02*
X5013158Y-588627D01*
X5013158Y-588627D02*
X5003634Y-560055D01*
X5003634Y-560055D02*
X4994111Y-541008D01*
X4994111Y-541008D02*
X4975063Y-512436D01*
X4975063Y-512436D02*
X4965539Y-502912D01*
D11*
X0Y-904000D02*
G75*
G02*
X-80000Y-904000I-40000J0D01*
G01*
X-80000Y-904000D02*
G75*
G02*
X0Y-904000I40000J0D01*
G01*
D10*
X298872Y-795484D02*
X317920Y-795484D01*
X317920Y-795484D02*
X336967Y-805008D01*
X336967Y-805008D02*
X346491Y-814531D01*
X346491Y-814531D02*
X356015Y-833579D01*
X356015Y-833579D02*
X365539Y-871674D01*
X365539Y-871674D02*
X365539Y-919293D01*
X365539Y-919293D02*
X356015Y-957388D01*
X356015Y-957388D02*
X346491Y-976436D01*
X346491Y-976436D02*
X336967Y-985960D01*
X336967Y-985960D02*
X317920Y-995484D01*
X317920Y-995484D02*
X298872Y-995484D01*
X298872Y-995484D02*
X279824Y-985960D01*
X279824Y-985960D02*
X270301Y-976436D01*
X270301Y-976436D02*
X260777Y-957388D01*
X260777Y-957388D02*
X251253Y-919293D01*
X251253Y-919293D02*
X251253Y-871674D01*
X251253Y-871674D02*
X260777Y-833579D01*
X260777Y-833579D02*
X270301Y-814531D01*
X270301Y-814531D02*
X279824Y-805008D01*
X279824Y-805008D02*
X298872Y-795484D01*
X451253Y-976436D02*
X460777Y-985960D01*
X460777Y-985960D02*
X451253Y-995484D01*
X451253Y-995484D02*
X441729Y-985960D01*
X441729Y-985960D02*
X451253Y-976436D01*
X451253Y-976436D02*
X451253Y-995484D01*
X575063Y-881198D02*
X556015Y-871674D01*
X556015Y-871674D02*
X546491Y-862150D01*
X546491Y-862150D02*
X536967Y-843103D01*
X536967Y-843103D02*
X536967Y-833579D01*
X536967Y-833579D02*
X546491Y-814531D01*
X546491Y-814531D02*
X556015Y-805008D01*
X556015Y-805008D02*
X575063Y-795484D01*
X575063Y-795484D02*
X613158Y-795484D01*
X613158Y-795484D02*
X632205Y-805008D01*
X632205Y-805008D02*
X641729Y-814531D01*
X641729Y-814531D02*
X651253Y-833579D01*
X651253Y-833579D02*
X651253Y-843103D01*
X651253Y-843103D02*
X641729Y-862150D01*
X641729Y-862150D02*
X632205Y-871674D01*
X632205Y-871674D02*
X613158Y-881198D01*
X613158Y-881198D02*
X575063Y-881198D01*
X575063Y-881198D02*
X556015Y-890722D01*
X556015Y-890722D02*
X546491Y-900246D01*
X546491Y-900246D02*
X536967Y-919293D01*
X536967Y-919293D02*
X536967Y-957388D01*
X536967Y-957388D02*
X546491Y-976436D01*
X546491Y-976436D02*
X556015Y-985960D01*
X556015Y-985960D02*
X575063Y-995484D01*
X575063Y-995484D02*
X613158Y-995484D01*
X613158Y-995484D02*
X632205Y-985960D01*
X632205Y-985960D02*
X641729Y-976436D01*
X641729Y-976436D02*
X651253Y-957388D01*
X651253Y-957388D02*
X651253Y-919293D01*
X651253Y-919293D02*
X641729Y-900246D01*
X641729Y-900246D02*
X632205Y-890722D01*
X632205Y-890722D02*
X613158Y-881198D01*
X775062Y-795484D02*
X794110Y-795484D01*
X794110Y-795484D02*
X813158Y-805008D01*
X813158Y-805008D02*
X822682Y-814531D01*
X822682Y-814531D02*
X832205Y-833579D01*
X832205Y-833579D02*
X841729Y-871674D01*
X841729Y-871674D02*
X841729Y-919293D01*
X841729Y-919293D02*
X832205Y-957388D01*
X832205Y-957388D02*
X822682Y-976436D01*
X822682Y-976436D02*
X813158Y-985960D01*
X813158Y-985960D02*
X794110Y-995484D01*
X794110Y-995484D02*
X775062Y-995484D01*
X775062Y-995484D02*
X756015Y-985960D01*
X756015Y-985960D02*
X746491Y-976436D01*
X746491Y-976436D02*
X736967Y-957388D01*
X736967Y-957388D02*
X727443Y-919293D01*
X727443Y-919293D02*
X727443Y-871674D01*
X727443Y-871674D02*
X736967Y-833579D01*
X736967Y-833579D02*
X746491Y-814531D01*
X746491Y-814531D02*
X756015Y-805008D01*
X756015Y-805008D02*
X775062Y-795484D01*
X965539Y-795484D02*
X984586Y-795484D01*
X984586Y-795484D02*
X1003634Y-805008D01*
X1003634Y-805008D02*
X1013158Y-814531D01*
X1013158Y-814531D02*
X1022682Y-833579D01*
X1022682Y-833579D02*
X1032205Y-871674D01*
X1032205Y-871674D02*
X1032205Y-919293D01*
X1032205Y-919293D02*
X1022682Y-957388D01*
X1022682Y-957388D02*
X1013158Y-976436D01*
X1013158Y-976436D02*
X1003634Y-985960D01*
X1003634Y-985960D02*
X984586Y-995484D01*
X984586Y-995484D02*
X965539Y-995484D01*
X965539Y-995484D02*
X946491Y-985960D01*
X946491Y-985960D02*
X936967Y-976436D01*
X936967Y-976436D02*
X927443Y-957388D01*
X927443Y-957388D02*
X917920Y-919293D01*
X917920Y-919293D02*
X917920Y-871674D01*
X917920Y-871674D02*
X927443Y-833579D01*
X927443Y-833579D02*
X936967Y-814531D01*
X936967Y-814531D02*
X946491Y-805008D01*
X946491Y-805008D02*
X965539Y-795484D01*
X1117920Y-995484D02*
X1117920Y-862150D01*
X1117920Y-881198D02*
X1127444Y-871674D01*
X1127444Y-871674D02*
X1146491Y-862150D01*
X1146491Y-862150D02*
X1175063Y-862150D01*
X1175063Y-862150D02*
X1194110Y-871674D01*
X1194110Y-871674D02*
X1203634Y-890722D01*
X1203634Y-890722D02*
X1203634Y-995484D01*
X1203634Y-890722D02*
X1213158Y-871674D01*
X1213158Y-871674D02*
X1232205Y-862150D01*
X1232205Y-862150D02*
X1260777Y-862150D01*
X1260777Y-862150D02*
X1279825Y-871674D01*
X1279825Y-871674D02*
X1289348Y-890722D01*
X1289348Y-890722D02*
X1289348Y-995484D01*
X1384586Y-995484D02*
X1384586Y-862150D01*
X1384586Y-881198D02*
X1394110Y-871674D01*
X1394110Y-871674D02*
X1413158Y-862150D01*
X1413158Y-862150D02*
X1441729Y-862150D01*
X1441729Y-862150D02*
X1460777Y-871674D01*
X1460777Y-871674D02*
X1470301Y-890722D01*
X1470301Y-890722D02*
X1470301Y-995484D01*
X1470301Y-890722D02*
X1479824Y-871674D01*
X1479824Y-871674D02*
X1498872Y-862150D01*
X1498872Y-862150D02*
X1527443Y-862150D01*
X1527443Y-862150D02*
X1546491Y-871674D01*
X1546491Y-871674D02*
X1556015Y-890722D01*
X1556015Y-890722D02*
X1556015Y-995484D01*
X1946491Y-785960D02*
X1775063Y-1043103D01*
X2203634Y-795484D02*
X2222682Y-795484D01*
X2222682Y-795484D02*
X2241729Y-805008D01*
X2241729Y-805008D02*
X2251253Y-814531D01*
X2251253Y-814531D02*
X2260777Y-833579D01*
X2260777Y-833579D02*
X2270301Y-871674D01*
X2270301Y-871674D02*
X2270301Y-919293D01*
X2270301Y-919293D02*
X2260777Y-957388D01*
X2260777Y-957388D02*
X2251253Y-976436D01*
X2251253Y-976436D02*
X2241729Y-985960D01*
X2241729Y-985960D02*
X2222682Y-995484D01*
X2222682Y-995484D02*
X2203634Y-995484D01*
X2203634Y-995484D02*
X2184587Y-985960D01*
X2184587Y-985960D02*
X2175063Y-976436D01*
X2175063Y-976436D02*
X2165539Y-957388D01*
X2165539Y-957388D02*
X2156015Y-919293D01*
X2156015Y-919293D02*
X2156015Y-871674D01*
X2156015Y-871674D02*
X2165539Y-833579D01*
X2165539Y-833579D02*
X2175063Y-814531D01*
X2175063Y-814531D02*
X2184587Y-805008D01*
X2184587Y-805008D02*
X2203634Y-795484D01*
X2356015Y-976436D02*
X2365539Y-985960D01*
X2365539Y-985960D02*
X2356015Y-995484D01*
X2356015Y-995484D02*
X2346491Y-985960D01*
X2346491Y-985960D02*
X2356015Y-976436D01*
X2356015Y-976436D02*
X2356015Y-995484D01*
X2489348Y-795484D02*
X2508396Y-795484D01*
X2508396Y-795484D02*
X2527444Y-805008D01*
X2527444Y-805008D02*
X2536968Y-814531D01*
X2536968Y-814531D02*
X2546491Y-833579D01*
X2546491Y-833579D02*
X2556015Y-871674D01*
X2556015Y-871674D02*
X2556015Y-919293D01*
X2556015Y-919293D02*
X2546491Y-957388D01*
X2546491Y-957388D02*
X2536968Y-976436D01*
X2536968Y-976436D02*
X2527444Y-985960D01*
X2527444Y-985960D02*
X2508396Y-995484D01*
X2508396Y-995484D02*
X2489348Y-995484D01*
X2489348Y-995484D02*
X2470301Y-985960D01*
X2470301Y-985960D02*
X2460777Y-976436D01*
X2460777Y-976436D02*
X2451253Y-957388D01*
X2451253Y-957388D02*
X2441729Y-919293D01*
X2441729Y-919293D02*
X2441729Y-871674D01*
X2441729Y-871674D02*
X2451253Y-833579D01*
X2451253Y-833579D02*
X2460777Y-814531D01*
X2460777Y-814531D02*
X2470301Y-805008D01*
X2470301Y-805008D02*
X2489348Y-795484D01*
X2622682Y-795484D02*
X2746491Y-795484D01*
X2746491Y-795484D02*
X2679825Y-871674D01*
X2679825Y-871674D02*
X2708396Y-871674D01*
X2708396Y-871674D02*
X2727444Y-881198D01*
X2727444Y-881198D02*
X2736968Y-890722D01*
X2736968Y-890722D02*
X2746491Y-909769D01*
X2746491Y-909769D02*
X2746491Y-957388D01*
X2746491Y-957388D02*
X2736968Y-976436D01*
X2736968Y-976436D02*
X2727444Y-985960D01*
X2727444Y-985960D02*
X2708396Y-995484D01*
X2708396Y-995484D02*
X2651253Y-995484D01*
X2651253Y-995484D02*
X2632206Y-985960D01*
X2632206Y-985960D02*
X2622682Y-976436D01*
X2936967Y-995484D02*
X2822682Y-995484D01*
X2879825Y-995484D02*
X2879825Y-795484D01*
X2879825Y-795484D02*
X2860777Y-824055D01*
X2860777Y-824055D02*
X2841729Y-843103D01*
X2841729Y-843103D02*
X2822682Y-852627D01*
X3117920Y-795484D02*
X3022682Y-795484D01*
X3022682Y-795484D02*
X3013158Y-890722D01*
X3013158Y-890722D02*
X3022682Y-881198D01*
X3022682Y-881198D02*
X3041729Y-871674D01*
X3041729Y-871674D02*
X3089348Y-871674D01*
X3089348Y-871674D02*
X3108396Y-881198D01*
X3108396Y-881198D02*
X3117920Y-890722D01*
X3117920Y-890722D02*
X3127444Y-909769D01*
X3127444Y-909769D02*
X3127444Y-957388D01*
X3127444Y-957388D02*
X3117920Y-976436D01*
X3117920Y-976436D02*
X3108396Y-985960D01*
X3108396Y-985960D02*
X3089348Y-995484D01*
X3089348Y-995484D02*
X3041729Y-995484D01*
X3041729Y-995484D02*
X3022682Y-985960D01*
X3022682Y-985960D02*
X3013158Y-976436D01*
X3203634Y-795484D02*
X3203634Y-833579D01*
X3279825Y-795484D02*
X3279825Y-833579D01*
X3575063Y-1071674D02*
X3565539Y-1062150D01*
X3565539Y-1062150D02*
X3546491Y-1033579D01*
X3546491Y-1033579D02*
X3536968Y-1014531D01*
X3536968Y-1014531D02*
X3527444Y-985960D01*
X3527444Y-985960D02*
X3517920Y-938341D01*
X3517920Y-938341D02*
X3517920Y-900246D01*
X3517920Y-900246D02*
X3527444Y-852627D01*
X3527444Y-852627D02*
X3536968Y-824055D01*
X3536968Y-824055D02*
X3546491Y-805008D01*
X3546491Y-805008D02*
X3565539Y-776436D01*
X3565539Y-776436D02*
X3575063Y-766912D01*
X3736968Y-862150D02*
X3736968Y-995484D01*
X3689348Y-785960D02*
X3641729Y-928817D01*
X3641729Y-928817D02*
X3765539Y-928817D01*
X3994110Y-995484D02*
X3994110Y-795484D01*
X4079825Y-995484D02*
X4079825Y-890722D01*
X4079825Y-890722D02*
X4070301Y-871674D01*
X4070301Y-871674D02*
X4051253Y-862150D01*
X4051253Y-862150D02*
X4022682Y-862150D01*
X4022682Y-862150D02*
X4003634Y-871674D01*
X4003634Y-871674D02*
X3994110Y-881198D01*
X4203634Y-995484D02*
X4184587Y-985960D01*
X4184587Y-985960D02*
X4175063Y-976436D01*
X4175063Y-976436D02*
X4165539Y-957388D01*
X4165539Y-957388D02*
X4165539Y-900246D01*
X4165539Y-900246D02*
X4175063Y-881198D01*
X4175063Y-881198D02*
X4184587Y-871674D01*
X4184587Y-871674D02*
X4203634Y-862150D01*
X4203634Y-862150D02*
X4232206Y-862150D01*
X4232206Y-862150D02*
X4251253Y-871674D01*
X4251253Y-871674D02*
X4260777Y-881198D01*
X4260777Y-881198D02*
X4270301Y-900246D01*
X4270301Y-900246D02*
X4270301Y-957388D01*
X4270301Y-957388D02*
X4260777Y-976436D01*
X4260777Y-976436D02*
X4251253Y-985960D01*
X4251253Y-985960D02*
X4232206Y-995484D01*
X4232206Y-995484D02*
X4203634Y-995484D01*
X4384587Y-995484D02*
X4365539Y-985960D01*
X4365539Y-985960D02*
X4356015Y-966912D01*
X4356015Y-966912D02*
X4356015Y-795484D01*
X4536968Y-985960D02*
X4517920Y-995484D01*
X4517920Y-995484D02*
X4479825Y-995484D01*
X4479825Y-995484D02*
X4460777Y-985960D01*
X4460777Y-985960D02*
X4451253Y-966912D01*
X4451253Y-966912D02*
X4451253Y-890722D01*
X4451253Y-890722D02*
X4460777Y-871674D01*
X4460777Y-871674D02*
X4479825Y-862150D01*
X4479825Y-862150D02*
X4517920Y-862150D01*
X4517920Y-862150D02*
X4536968Y-871674D01*
X4536968Y-871674D02*
X4546492Y-890722D01*
X4546492Y-890722D02*
X4546492Y-909769D01*
X4546492Y-909769D02*
X4451253Y-928817D01*
X4622682Y-985960D02*
X4641730Y-995484D01*
X4641730Y-995484D02*
X4679825Y-995484D01*
X4679825Y-995484D02*
X4698873Y-985960D01*
X4698873Y-985960D02*
X4708396Y-966912D01*
X4708396Y-966912D02*
X4708396Y-957388D01*
X4708396Y-957388D02*
X4698873Y-938341D01*
X4698873Y-938341D02*
X4679825Y-928817D01*
X4679825Y-928817D02*
X4651253Y-928817D01*
X4651253Y-928817D02*
X4632206Y-919293D01*
X4632206Y-919293D02*
X4622682Y-900246D01*
X4622682Y-900246D02*
X4622682Y-890722D01*
X4622682Y-890722D02*
X4632206Y-871674D01*
X4632206Y-871674D02*
X4651253Y-862150D01*
X4651253Y-862150D02*
X4679825Y-862150D01*
X4679825Y-862150D02*
X4698873Y-871674D01*
X4775063Y-1071674D02*
X4784587Y-1062150D01*
X4784587Y-1062150D02*
X4803634Y-1033579D01*
X4803634Y-1033579D02*
X4813158Y-1014531D01*
X4813158Y-1014531D02*
X4822682Y-985960D01*
X4822682Y-985960D02*
X4832206Y-938341D01*
X4832206Y-938341D02*
X4832206Y-900246D01*
X4832206Y-900246D02*
X4822682Y-852627D01*
X4822682Y-852627D02*
X4813158Y-824055D01*
X4813158Y-824055D02*
X4803634Y-805008D01*
X4803634Y-805008D02*
X4784587Y-776436D01*
X4784587Y-776436D02*
X4775063Y-766912D01*
D11*
X-50000Y-1118000D02*
X-50000Y-1218000D01*
X-100000Y-1168000D02*
X0Y-1168000D01*
D10*
X365539Y-1259484D02*
X251253Y-1259484D01*
X308396Y-1259484D02*
X308396Y-1059484D01*
X308396Y-1059484D02*
X289348Y-1088055D01*
X289348Y-1088055D02*
X270301Y-1107103D01*
X270301Y-1107103D02*
X251253Y-1116627D01*
X451253Y-1240436D02*
X460777Y-1249960D01*
X460777Y-1249960D02*
X451253Y-1259484D01*
X451253Y-1259484D02*
X441729Y-1249960D01*
X441729Y-1249960D02*
X451253Y-1240436D01*
X451253Y-1240436D02*
X451253Y-1259484D01*
X584586Y-1059484D02*
X603634Y-1059484D01*
X603634Y-1059484D02*
X622682Y-1069008D01*
X622682Y-1069008D02*
X632205Y-1078531D01*
X632205Y-1078531D02*
X641729Y-1097579D01*
X641729Y-1097579D02*
X651253Y-1135674D01*
X651253Y-1135674D02*
X651253Y-1183293D01*
X651253Y-1183293D02*
X641729Y-1221389D01*
X641729Y-1221389D02*
X632205Y-1240436D01*
X632205Y-1240436D02*
X622682Y-1249960D01*
X622682Y-1249960D02*
X603634Y-1259484D01*
X603634Y-1259484D02*
X584586Y-1259484D01*
X584586Y-1259484D02*
X565539Y-1249960D01*
X565539Y-1249960D02*
X556015Y-1240436D01*
X556015Y-1240436D02*
X546491Y-1221389D01*
X546491Y-1221389D02*
X536967Y-1183293D01*
X536967Y-1183293D02*
X536967Y-1135674D01*
X536967Y-1135674D02*
X546491Y-1097579D01*
X546491Y-1097579D02*
X556015Y-1078531D01*
X556015Y-1078531D02*
X565539Y-1069008D01*
X565539Y-1069008D02*
X584586Y-1059484D01*
X775062Y-1059484D02*
X794110Y-1059484D01*
X794110Y-1059484D02*
X813158Y-1069008D01*
X813158Y-1069008D02*
X822682Y-1078531D01*
X822682Y-1078531D02*
X832205Y-1097579D01*
X832205Y-1097579D02*
X841729Y-1135674D01*
X841729Y-1135674D02*
X841729Y-1183293D01*
X841729Y-1183293D02*
X832205Y-1221389D01*
X832205Y-1221389D02*
X822682Y-1240436D01*
X822682Y-1240436D02*
X813158Y-1249960D01*
X813158Y-1249960D02*
X794110Y-1259484D01*
X794110Y-1259484D02*
X775062Y-1259484D01*
X775062Y-1259484D02*
X756015Y-1249960D01*
X756015Y-1249960D02*
X746491Y-1240436D01*
X746491Y-1240436D02*
X736967Y-1221389D01*
X736967Y-1221389D02*
X727443Y-1183293D01*
X727443Y-1183293D02*
X727443Y-1135674D01*
X727443Y-1135674D02*
X736967Y-1097579D01*
X736967Y-1097579D02*
X746491Y-1078531D01*
X746491Y-1078531D02*
X756015Y-1069008D01*
X756015Y-1069008D02*
X775062Y-1059484D01*
X965539Y-1059484D02*
X984586Y-1059484D01*
X984586Y-1059484D02*
X1003634Y-1069008D01*
X1003634Y-1069008D02*
X1013158Y-1078531D01*
X1013158Y-1078531D02*
X1022682Y-1097579D01*
X1022682Y-1097579D02*
X1032205Y-1135674D01*
X1032205Y-1135674D02*
X1032205Y-1183293D01*
X1032205Y-1183293D02*
X1022682Y-1221389D01*
X1022682Y-1221389D02*
X1013158Y-1240436D01*
X1013158Y-1240436D02*
X1003634Y-1249960D01*
X1003634Y-1249960D02*
X984586Y-1259484D01*
X984586Y-1259484D02*
X965539Y-1259484D01*
X965539Y-1259484D02*
X946491Y-1249960D01*
X946491Y-1249960D02*
X936967Y-1240436D01*
X936967Y-1240436D02*
X927443Y-1221389D01*
X927443Y-1221389D02*
X917920Y-1183293D01*
X917920Y-1183293D02*
X917920Y-1135674D01*
X917920Y-1135674D02*
X927443Y-1097579D01*
X927443Y-1097579D02*
X936967Y-1078531D01*
X936967Y-1078531D02*
X946491Y-1069008D01*
X946491Y-1069008D02*
X965539Y-1059484D01*
X1117920Y-1259484D02*
X1117920Y-1126150D01*
X1117920Y-1145198D02*
X1127444Y-1135674D01*
X1127444Y-1135674D02*
X1146491Y-1126150D01*
X1146491Y-1126150D02*
X1175063Y-1126150D01*
X1175063Y-1126150D02*
X1194110Y-1135674D01*
X1194110Y-1135674D02*
X1203634Y-1154722D01*
X1203634Y-1154722D02*
X1203634Y-1259484D01*
X1203634Y-1154722D02*
X1213158Y-1135674D01*
X1213158Y-1135674D02*
X1232205Y-1126150D01*
X1232205Y-1126150D02*
X1260777Y-1126150D01*
X1260777Y-1126150D02*
X1279825Y-1135674D01*
X1279825Y-1135674D02*
X1289348Y-1154722D01*
X1289348Y-1154722D02*
X1289348Y-1259484D01*
X1384586Y-1259484D02*
X1384586Y-1126150D01*
X1384586Y-1145198D02*
X1394110Y-1135674D01*
X1394110Y-1135674D02*
X1413158Y-1126150D01*
X1413158Y-1126150D02*
X1441729Y-1126150D01*
X1441729Y-1126150D02*
X1460777Y-1135674D01*
X1460777Y-1135674D02*
X1470301Y-1154722D01*
X1470301Y-1154722D02*
X1470301Y-1259484D01*
X1470301Y-1154722D02*
X1479824Y-1135674D01*
X1479824Y-1135674D02*
X1498872Y-1126150D01*
X1498872Y-1126150D02*
X1527443Y-1126150D01*
X1527443Y-1126150D02*
X1546491Y-1135674D01*
X1546491Y-1135674D02*
X1556015Y-1154722D01*
X1556015Y-1154722D02*
X1556015Y-1259484D01*
X1946491Y-1049960D02*
X1775063Y-1307103D01*
X2203634Y-1059484D02*
X2222682Y-1059484D01*
X2222682Y-1059484D02*
X2241729Y-1069008D01*
X2241729Y-1069008D02*
X2251253Y-1078531D01*
X2251253Y-1078531D02*
X2260777Y-1097579D01*
X2260777Y-1097579D02*
X2270301Y-1135674D01*
X2270301Y-1135674D02*
X2270301Y-1183293D01*
X2270301Y-1183293D02*
X2260777Y-1221389D01*
X2260777Y-1221389D02*
X2251253Y-1240436D01*
X2251253Y-1240436D02*
X2241729Y-1249960D01*
X2241729Y-1249960D02*
X2222682Y-1259484D01*
X2222682Y-1259484D02*
X2203634Y-1259484D01*
X2203634Y-1259484D02*
X2184587Y-1249960D01*
X2184587Y-1249960D02*
X2175063Y-1240436D01*
X2175063Y-1240436D02*
X2165539Y-1221389D01*
X2165539Y-1221389D02*
X2156015Y-1183293D01*
X2156015Y-1183293D02*
X2156015Y-1135674D01*
X2156015Y-1135674D02*
X2165539Y-1097579D01*
X2165539Y-1097579D02*
X2175063Y-1078531D01*
X2175063Y-1078531D02*
X2184587Y-1069008D01*
X2184587Y-1069008D02*
X2203634Y-1059484D01*
X2356015Y-1240436D02*
X2365539Y-1249960D01*
X2365539Y-1249960D02*
X2356015Y-1259484D01*
X2356015Y-1259484D02*
X2346491Y-1249960D01*
X2346491Y-1249960D02*
X2356015Y-1240436D01*
X2356015Y-1240436D02*
X2356015Y-1259484D01*
X2489348Y-1059484D02*
X2508396Y-1059484D01*
X2508396Y-1059484D02*
X2527444Y-1069008D01*
X2527444Y-1069008D02*
X2536968Y-1078531D01*
X2536968Y-1078531D02*
X2546491Y-1097579D01*
X2546491Y-1097579D02*
X2556015Y-1135674D01*
X2556015Y-1135674D02*
X2556015Y-1183293D01*
X2556015Y-1183293D02*
X2546491Y-1221389D01*
X2546491Y-1221389D02*
X2536968Y-1240436D01*
X2536968Y-1240436D02*
X2527444Y-1249960D01*
X2527444Y-1249960D02*
X2508396Y-1259484D01*
X2508396Y-1259484D02*
X2489348Y-1259484D01*
X2489348Y-1259484D02*
X2470301Y-1249960D01*
X2470301Y-1249960D02*
X2460777Y-1240436D01*
X2460777Y-1240436D02*
X2451253Y-1221389D01*
X2451253Y-1221389D02*
X2441729Y-1183293D01*
X2441729Y-1183293D02*
X2441729Y-1135674D01*
X2441729Y-1135674D02*
X2451253Y-1097579D01*
X2451253Y-1097579D02*
X2460777Y-1078531D01*
X2460777Y-1078531D02*
X2470301Y-1069008D01*
X2470301Y-1069008D02*
X2489348Y-1059484D01*
X2622682Y-1059484D02*
X2746491Y-1059484D01*
X2746491Y-1059484D02*
X2679825Y-1135674D01*
X2679825Y-1135674D02*
X2708396Y-1135674D01*
X2708396Y-1135674D02*
X2727444Y-1145198D01*
X2727444Y-1145198D02*
X2736968Y-1154722D01*
X2736968Y-1154722D02*
X2746491Y-1173770D01*
X2746491Y-1173770D02*
X2746491Y-1221389D01*
X2746491Y-1221389D02*
X2736968Y-1240436D01*
X2736968Y-1240436D02*
X2727444Y-1249960D01*
X2727444Y-1249960D02*
X2708396Y-1259484D01*
X2708396Y-1259484D02*
X2651253Y-1259484D01*
X2651253Y-1259484D02*
X2632206Y-1249960D01*
X2632206Y-1249960D02*
X2622682Y-1240436D01*
X2841729Y-1259484D02*
X2879825Y-1259484D01*
X2879825Y-1259484D02*
X2898872Y-1249960D01*
X2898872Y-1249960D02*
X2908396Y-1240436D01*
X2908396Y-1240436D02*
X2927444Y-1211865D01*
X2927444Y-1211865D02*
X2936967Y-1173770D01*
X2936967Y-1173770D02*
X2936967Y-1097579D01*
X2936967Y-1097579D02*
X2927444Y-1078531D01*
X2927444Y-1078531D02*
X2917920Y-1069008D01*
X2917920Y-1069008D02*
X2898872Y-1059484D01*
X2898872Y-1059484D02*
X2860777Y-1059484D01*
X2860777Y-1059484D02*
X2841729Y-1069008D01*
X2841729Y-1069008D02*
X2832206Y-1078531D01*
X2832206Y-1078531D02*
X2822682Y-1097579D01*
X2822682Y-1097579D02*
X2822682Y-1145198D01*
X2822682Y-1145198D02*
X2832206Y-1164246D01*
X2832206Y-1164246D02*
X2841729Y-1173770D01*
X2841729Y-1173770D02*
X2860777Y-1183293D01*
X2860777Y-1183293D02*
X2898872Y-1183293D01*
X2898872Y-1183293D02*
X2917920Y-1173770D01*
X2917920Y-1173770D02*
X2927444Y-1164246D01*
X2927444Y-1164246D02*
X2936967Y-1145198D01*
X3108396Y-1126150D02*
X3108396Y-1259484D01*
X3060777Y-1049960D02*
X3013158Y-1192817D01*
X3013158Y-1192817D02*
X3136967Y-1192817D01*
X3203634Y-1059484D02*
X3203634Y-1097579D01*
X3279825Y-1059484D02*
X3279825Y-1097579D01*
X3575063Y-1335674D02*
X3565539Y-1326150D01*
X3565539Y-1326150D02*
X3546491Y-1297579D01*
X3546491Y-1297579D02*
X3536968Y-1278531D01*
X3536968Y-1278531D02*
X3527444Y-1249960D01*
X3527444Y-1249960D02*
X3517920Y-1202341D01*
X3517920Y-1202341D02*
X3517920Y-1164246D01*
X3517920Y-1164246D02*
X3527444Y-1116627D01*
X3527444Y-1116627D02*
X3536968Y-1088055D01*
X3536968Y-1088055D02*
X3546491Y-1069008D01*
X3546491Y-1069008D02*
X3565539Y-1040436D01*
X3565539Y-1040436D02*
X3575063Y-1030912D01*
X3736968Y-1059484D02*
X3698872Y-1059484D01*
X3698872Y-1059484D02*
X3679825Y-1069008D01*
X3679825Y-1069008D02*
X3670301Y-1078531D01*
X3670301Y-1078531D02*
X3651253Y-1107103D01*
X3651253Y-1107103D02*
X3641729Y-1145198D01*
X3641729Y-1145198D02*
X3641729Y-1221389D01*
X3641729Y-1221389D02*
X3651253Y-1240436D01*
X3651253Y-1240436D02*
X3660777Y-1249960D01*
X3660777Y-1249960D02*
X3679825Y-1259484D01*
X3679825Y-1259484D02*
X3717920Y-1259484D01*
X3717920Y-1259484D02*
X3736968Y-1249960D01*
X3736968Y-1249960D02*
X3746491Y-1240436D01*
X3746491Y-1240436D02*
X3756015Y-1221389D01*
X3756015Y-1221389D02*
X3756015Y-1173770D01*
X3756015Y-1173770D02*
X3746491Y-1154722D01*
X3746491Y-1154722D02*
X3736968Y-1145198D01*
X3736968Y-1145198D02*
X3717920Y-1135674D01*
X3717920Y-1135674D02*
X3679825Y-1135674D01*
X3679825Y-1135674D02*
X3660777Y-1145198D01*
X3660777Y-1145198D02*
X3651253Y-1154722D01*
X3651253Y-1154722D02*
X3641729Y-1173770D01*
X3870301Y-1145198D02*
X3851253Y-1135674D01*
X3851253Y-1135674D02*
X3841729Y-1126150D01*
X3841729Y-1126150D02*
X3832206Y-1107103D01*
X3832206Y-1107103D02*
X3832206Y-1097579D01*
X3832206Y-1097579D02*
X3841729Y-1078531D01*
X3841729Y-1078531D02*
X3851253Y-1069008D01*
X3851253Y-1069008D02*
X3870301Y-1059484D01*
X3870301Y-1059484D02*
X3908396Y-1059484D01*
X3908396Y-1059484D02*
X3927444Y-1069008D01*
X3927444Y-1069008D02*
X3936968Y-1078531D01*
X3936968Y-1078531D02*
X3946491Y-1097579D01*
X3946491Y-1097579D02*
X3946491Y-1107103D01*
X3946491Y-1107103D02*
X3936968Y-1126150D01*
X3936968Y-1126150D02*
X3927444Y-1135674D01*
X3927444Y-1135674D02*
X3908396Y-1145198D01*
X3908396Y-1145198D02*
X3870301Y-1145198D01*
X3870301Y-1145198D02*
X3851253Y-1154722D01*
X3851253Y-1154722D02*
X3841729Y-1164246D01*
X3841729Y-1164246D02*
X3832206Y-1183293D01*
X3832206Y-1183293D02*
X3832206Y-1221389D01*
X3832206Y-1221389D02*
X3841729Y-1240436D01*
X3841729Y-1240436D02*
X3851253Y-1249960D01*
X3851253Y-1249960D02*
X3870301Y-1259484D01*
X3870301Y-1259484D02*
X3908396Y-1259484D01*
X3908396Y-1259484D02*
X3927444Y-1249960D01*
X3927444Y-1249960D02*
X3936968Y-1240436D01*
X3936968Y-1240436D02*
X3946491Y-1221389D01*
X3946491Y-1221389D02*
X3946491Y-1183293D01*
X3946491Y-1183293D02*
X3936968Y-1164246D01*
X3936968Y-1164246D02*
X3927444Y-1154722D01*
X3927444Y-1154722D02*
X3908396Y-1145198D01*
X4184587Y-1259484D02*
X4184587Y-1059484D01*
X4270301Y-1259484D02*
X4270301Y-1154722D01*
X4270301Y-1154722D02*
X4260777Y-1135674D01*
X4260777Y-1135674D02*
X4241730Y-1126150D01*
X4241730Y-1126150D02*
X4213158Y-1126150D01*
X4213158Y-1126150D02*
X4194110Y-1135674D01*
X4194110Y-1135674D02*
X4184587Y-1145198D01*
X4394111Y-1259484D02*
X4375063Y-1249960D01*
X4375063Y-1249960D02*
X4365539Y-1240436D01*
X4365539Y-1240436D02*
X4356015Y-1221389D01*
X4356015Y-1221389D02*
X4356015Y-1164246D01*
X4356015Y-1164246D02*
X4365539Y-1145198D01*
X4365539Y-1145198D02*
X4375063Y-1135674D01*
X4375063Y-1135674D02*
X4394111Y-1126150D01*
X4394111Y-1126150D02*
X4422682Y-1126150D01*
X4422682Y-1126150D02*
X4441730Y-1135674D01*
X4441730Y-1135674D02*
X4451253Y-1145198D01*
X4451253Y-1145198D02*
X4460777Y-1164246D01*
X4460777Y-1164246D02*
X4460777Y-1221389D01*
X4460777Y-1221389D02*
X4451253Y-1240436D01*
X4451253Y-1240436D02*
X4441730Y-1249960D01*
X4441730Y-1249960D02*
X4422682Y-1259484D01*
X4422682Y-1259484D02*
X4394111Y-1259484D01*
X4575063Y-1259484D02*
X4556015Y-1249960D01*
X4556015Y-1249960D02*
X4546492Y-1230912D01*
X4546492Y-1230912D02*
X4546492Y-1059484D01*
X4727444Y-1249960D02*
X4708396Y-1259484D01*
X4708396Y-1259484D02*
X4670301Y-1259484D01*
X4670301Y-1259484D02*
X4651253Y-1249960D01*
X4651253Y-1249960D02*
X4641730Y-1230912D01*
X4641730Y-1230912D02*
X4641730Y-1154722D01*
X4641730Y-1154722D02*
X4651253Y-1135674D01*
X4651253Y-1135674D02*
X4670301Y-1126150D01*
X4670301Y-1126150D02*
X4708396Y-1126150D01*
X4708396Y-1126150D02*
X4727444Y-1135674D01*
X4727444Y-1135674D02*
X4736968Y-1154722D01*
X4736968Y-1154722D02*
X4736968Y-1173770D01*
X4736968Y-1173770D02*
X4641730Y-1192817D01*
X4813158Y-1249960D02*
X4832206Y-1259484D01*
X4832206Y-1259484D02*
X4870301Y-1259484D01*
X4870301Y-1259484D02*
X4889349Y-1249960D01*
X4889349Y-1249960D02*
X4898873Y-1230912D01*
X4898873Y-1230912D02*
X4898873Y-1221389D01*
X4898873Y-1221389D02*
X4889349Y-1202341D01*
X4889349Y-1202341D02*
X4870301Y-1192817D01*
X4870301Y-1192817D02*
X4841730Y-1192817D01*
X4841730Y-1192817D02*
X4822682Y-1183293D01*
X4822682Y-1183293D02*
X4813158Y-1164246D01*
X4813158Y-1164246D02*
X4813158Y-1154722D01*
X4813158Y-1154722D02*
X4822682Y-1135674D01*
X4822682Y-1135674D02*
X4841730Y-1126150D01*
X4841730Y-1126150D02*
X4870301Y-1126150D01*
X4870301Y-1126150D02*
X4889349Y-1135674D01*
X4965539Y-1335674D02*
X4975063Y-1326150D01*
X4975063Y-1326150D02*
X4994111Y-1297579D01*
X4994111Y-1297579D02*
X5003634Y-1278531D01*
X5003634Y-1278531D02*
X5013158Y-1249960D01*
X5013158Y-1249960D02*
X5022682Y-1202341D01*
X5022682Y-1202341D02*
X5022682Y-1164246D01*
X5022682Y-1164246D02*
X5013158Y-1116627D01*
X5013158Y-1116627D02*
X5003634Y-1088055D01*
X5003634Y-1088055D02*
X4994111Y-1069008D01*
X4994111Y-1069008D02*
X4975063Y-1040436D01*
X4975063Y-1040436D02*
X4965539Y-1030912D01*
X-29289Y-1502711D02*
X-29289Y-1361289D01*
X-170711Y-1361289D01*
X-170711Y-1502711D01*
X-29289Y-1502711D01*
X241729Y-1323484D02*
X365539Y-1323484D01*
X365539Y-1323484D02*
X298872Y-1399674D01*
X298872Y-1399674D02*
X327444Y-1399674D01*
X327444Y-1399674D02*
X346491Y-1409198D01*
X346491Y-1409198D02*
X356015Y-1418722D01*
X356015Y-1418722D02*
X365539Y-1437769D01*
X365539Y-1437769D02*
X365539Y-1485388D01*
X365539Y-1485388D02*
X356015Y-1504436D01*
X356015Y-1504436D02*
X346491Y-1513960D01*
X346491Y-1513960D02*
X327444Y-1523484D01*
X327444Y-1523484D02*
X270301Y-1523484D01*
X270301Y-1523484D02*
X251253Y-1513960D01*
X251253Y-1513960D02*
X241729Y-1504436D01*
X451253Y-1504436D02*
X460777Y-1513960D01*
X460777Y-1513960D02*
X451253Y-1523484D01*
X451253Y-1523484D02*
X441729Y-1513960D01*
X441729Y-1513960D02*
X451253Y-1504436D01*
X451253Y-1504436D02*
X451253Y-1523484D01*
X584586Y-1323484D02*
X603634Y-1323484D01*
X603634Y-1323484D02*
X622682Y-1333008D01*
X622682Y-1333008D02*
X632205Y-1342531D01*
X632205Y-1342531D02*
X641729Y-1361579D01*
X641729Y-1361579D02*
X651253Y-1399674D01*
X651253Y-1399674D02*
X651253Y-1447293D01*
X651253Y-1447293D02*
X641729Y-1485388D01*
X641729Y-1485388D02*
X632205Y-1504436D01*
X632205Y-1504436D02*
X622682Y-1513960D01*
X622682Y-1513960D02*
X603634Y-1523484D01*
X603634Y-1523484D02*
X584586Y-1523484D01*
X584586Y-1523484D02*
X565539Y-1513960D01*
X565539Y-1513960D02*
X556015Y-1504436D01*
X556015Y-1504436D02*
X546491Y-1485388D01*
X546491Y-1485388D02*
X536967Y-1447293D01*
X536967Y-1447293D02*
X536967Y-1399674D01*
X536967Y-1399674D02*
X546491Y-1361579D01*
X546491Y-1361579D02*
X556015Y-1342531D01*
X556015Y-1342531D02*
X565539Y-1333008D01*
X565539Y-1333008D02*
X584586Y-1323484D01*
X775062Y-1323484D02*
X794110Y-1323484D01*
X794110Y-1323484D02*
X813158Y-1333008D01*
X813158Y-1333008D02*
X822682Y-1342531D01*
X822682Y-1342531D02*
X832205Y-1361579D01*
X832205Y-1361579D02*
X841729Y-1399674D01*
X841729Y-1399674D02*
X841729Y-1447293D01*
X841729Y-1447293D02*
X832205Y-1485388D01*
X832205Y-1485388D02*
X822682Y-1504436D01*
X822682Y-1504436D02*
X813158Y-1513960D01*
X813158Y-1513960D02*
X794110Y-1523484D01*
X794110Y-1523484D02*
X775062Y-1523484D01*
X775062Y-1523484D02*
X756015Y-1513960D01*
X756015Y-1513960D02*
X746491Y-1504436D01*
X746491Y-1504436D02*
X736967Y-1485388D01*
X736967Y-1485388D02*
X727443Y-1447293D01*
X727443Y-1447293D02*
X727443Y-1399674D01*
X727443Y-1399674D02*
X736967Y-1361579D01*
X736967Y-1361579D02*
X746491Y-1342531D01*
X746491Y-1342531D02*
X756015Y-1333008D01*
X756015Y-1333008D02*
X775062Y-1323484D01*
X965539Y-1323484D02*
X984586Y-1323484D01*
X984586Y-1323484D02*
X1003634Y-1333008D01*
X1003634Y-1333008D02*
X1013158Y-1342531D01*
X1013158Y-1342531D02*
X1022682Y-1361579D01*
X1022682Y-1361579D02*
X1032205Y-1399674D01*
X1032205Y-1399674D02*
X1032205Y-1447293D01*
X1032205Y-1447293D02*
X1022682Y-1485388D01*
X1022682Y-1485388D02*
X1013158Y-1504436D01*
X1013158Y-1504436D02*
X1003634Y-1513960D01*
X1003634Y-1513960D02*
X984586Y-1523484D01*
X984586Y-1523484D02*
X965539Y-1523484D01*
X965539Y-1523484D02*
X946491Y-1513960D01*
X946491Y-1513960D02*
X936967Y-1504436D01*
X936967Y-1504436D02*
X927443Y-1485388D01*
X927443Y-1485388D02*
X917920Y-1447293D01*
X917920Y-1447293D02*
X917920Y-1399674D01*
X917920Y-1399674D02*
X927443Y-1361579D01*
X927443Y-1361579D02*
X936967Y-1342531D01*
X936967Y-1342531D02*
X946491Y-1333008D01*
X946491Y-1333008D02*
X965539Y-1323484D01*
X1117920Y-1523484D02*
X1117920Y-1390150D01*
X1117920Y-1409198D02*
X1127444Y-1399674D01*
X1127444Y-1399674D02*
X1146491Y-1390150D01*
X1146491Y-1390150D02*
X1175063Y-1390150D01*
X1175063Y-1390150D02*
X1194110Y-1399674D01*
X1194110Y-1399674D02*
X1203634Y-1418722D01*
X1203634Y-1418722D02*
X1203634Y-1523484D01*
X1203634Y-1418722D02*
X1213158Y-1399674D01*
X1213158Y-1399674D02*
X1232205Y-1390150D01*
X1232205Y-1390150D02*
X1260777Y-1390150D01*
X1260777Y-1390150D02*
X1279825Y-1399674D01*
X1279825Y-1399674D02*
X1289348Y-1418722D01*
X1289348Y-1418722D02*
X1289348Y-1523484D01*
X1384586Y-1523484D02*
X1384586Y-1390150D01*
X1384586Y-1409198D02*
X1394110Y-1399674D01*
X1394110Y-1399674D02*
X1413158Y-1390150D01*
X1413158Y-1390150D02*
X1441729Y-1390150D01*
X1441729Y-1390150D02*
X1460777Y-1399674D01*
X1460777Y-1399674D02*
X1470301Y-1418722D01*
X1470301Y-1418722D02*
X1470301Y-1523484D01*
X1470301Y-1418722D02*
X1479824Y-1399674D01*
X1479824Y-1399674D02*
X1498872Y-1390150D01*
X1498872Y-1390150D02*
X1527443Y-1390150D01*
X1527443Y-1390150D02*
X1546491Y-1399674D01*
X1546491Y-1399674D02*
X1556015Y-1418722D01*
X1556015Y-1418722D02*
X1556015Y-1523484D01*
X1946491Y-1313960D02*
X1775063Y-1571103D01*
X2203634Y-1323484D02*
X2222682Y-1323484D01*
X2222682Y-1323484D02*
X2241729Y-1333008D01*
X2241729Y-1333008D02*
X2251253Y-1342531D01*
X2251253Y-1342531D02*
X2260777Y-1361579D01*
X2260777Y-1361579D02*
X2270301Y-1399674D01*
X2270301Y-1399674D02*
X2270301Y-1447293D01*
X2270301Y-1447293D02*
X2260777Y-1485388D01*
X2260777Y-1485388D02*
X2251253Y-1504436D01*
X2251253Y-1504436D02*
X2241729Y-1513960D01*
X2241729Y-1513960D02*
X2222682Y-1523484D01*
X2222682Y-1523484D02*
X2203634Y-1523484D01*
X2203634Y-1523484D02*
X2184587Y-1513960D01*
X2184587Y-1513960D02*
X2175063Y-1504436D01*
X2175063Y-1504436D02*
X2165539Y-1485388D01*
X2165539Y-1485388D02*
X2156015Y-1447293D01*
X2156015Y-1447293D02*
X2156015Y-1399674D01*
X2156015Y-1399674D02*
X2165539Y-1361579D01*
X2165539Y-1361579D02*
X2175063Y-1342531D01*
X2175063Y-1342531D02*
X2184587Y-1333008D01*
X2184587Y-1333008D02*
X2203634Y-1323484D01*
X2356015Y-1504436D02*
X2365539Y-1513960D01*
X2365539Y-1513960D02*
X2356015Y-1523484D01*
X2356015Y-1523484D02*
X2346491Y-1513960D01*
X2346491Y-1513960D02*
X2356015Y-1504436D01*
X2356015Y-1504436D02*
X2356015Y-1523484D01*
X2556015Y-1523484D02*
X2441729Y-1523484D01*
X2498872Y-1523484D02*
X2498872Y-1323484D01*
X2498872Y-1323484D02*
X2479825Y-1352055D01*
X2479825Y-1352055D02*
X2460777Y-1371103D01*
X2460777Y-1371103D02*
X2441729Y-1380627D01*
X2746491Y-1523484D02*
X2632206Y-1523484D01*
X2689348Y-1523484D02*
X2689348Y-1323484D01*
X2689348Y-1323484D02*
X2670301Y-1352055D01*
X2670301Y-1352055D02*
X2651253Y-1371103D01*
X2651253Y-1371103D02*
X2632206Y-1380627D01*
X2860777Y-1409198D02*
X2841729Y-1399674D01*
X2841729Y-1399674D02*
X2832206Y-1390150D01*
X2832206Y-1390150D02*
X2822682Y-1371103D01*
X2822682Y-1371103D02*
X2822682Y-1361579D01*
X2822682Y-1361579D02*
X2832206Y-1342531D01*
X2832206Y-1342531D02*
X2841729Y-1333008D01*
X2841729Y-1333008D02*
X2860777Y-1323484D01*
X2860777Y-1323484D02*
X2898872Y-1323484D01*
X2898872Y-1323484D02*
X2917920Y-1333008D01*
X2917920Y-1333008D02*
X2927444Y-1342531D01*
X2927444Y-1342531D02*
X2936967Y-1361579D01*
X2936967Y-1361579D02*
X2936967Y-1371103D01*
X2936967Y-1371103D02*
X2927444Y-1390150D01*
X2927444Y-1390150D02*
X2917920Y-1399674D01*
X2917920Y-1399674D02*
X2898872Y-1409198D01*
X2898872Y-1409198D02*
X2860777Y-1409198D01*
X2860777Y-1409198D02*
X2841729Y-1418722D01*
X2841729Y-1418722D02*
X2832206Y-1428246D01*
X2832206Y-1428246D02*
X2822682Y-1447293D01*
X2822682Y-1447293D02*
X2822682Y-1485388D01*
X2822682Y-1485388D02*
X2832206Y-1504436D01*
X2832206Y-1504436D02*
X2841729Y-1513960D01*
X2841729Y-1513960D02*
X2860777Y-1523484D01*
X2860777Y-1523484D02*
X2898872Y-1523484D01*
X2898872Y-1523484D02*
X2917920Y-1513960D01*
X2917920Y-1513960D02*
X2927444Y-1504436D01*
X2927444Y-1504436D02*
X2936967Y-1485388D01*
X2936967Y-1485388D02*
X2936967Y-1447293D01*
X2936967Y-1447293D02*
X2927444Y-1428246D01*
X2927444Y-1428246D02*
X2917920Y-1418722D01*
X2917920Y-1418722D02*
X2898872Y-1409198D01*
X3127444Y-1523484D02*
X3013158Y-1523484D01*
X3070301Y-1523484D02*
X3070301Y-1323484D01*
X3070301Y-1323484D02*
X3051253Y-1352055D01*
X3051253Y-1352055D02*
X3032206Y-1371103D01*
X3032206Y-1371103D02*
X3013158Y-1380627D01*
X3203634Y-1323484D02*
X3203634Y-1361579D01*
X3279825Y-1323484D02*
X3279825Y-1361579D01*
X3575063Y-1599674D02*
X3565539Y-1590150D01*
X3565539Y-1590150D02*
X3546491Y-1561579D01*
X3546491Y-1561579D02*
X3536968Y-1542531D01*
X3536968Y-1542531D02*
X3527444Y-1513960D01*
X3527444Y-1513960D02*
X3517920Y-1466341D01*
X3517920Y-1466341D02*
X3517920Y-1428246D01*
X3517920Y-1428246D02*
X3527444Y-1380627D01*
X3527444Y-1380627D02*
X3536968Y-1352055D01*
X3536968Y-1352055D02*
X3546491Y-1333008D01*
X3546491Y-1333008D02*
X3565539Y-1304436D01*
X3565539Y-1304436D02*
X3575063Y-1294912D01*
X3736968Y-1390150D02*
X3736968Y-1523484D01*
X3689348Y-1313960D02*
X3641729Y-1456817D01*
X3641729Y-1456817D02*
X3765539Y-1456817D01*
X3994110Y-1523484D02*
X3994110Y-1323484D01*
X4079825Y-1523484D02*
X4079825Y-1418722D01*
X4079825Y-1418722D02*
X4070301Y-1399674D01*
X4070301Y-1399674D02*
X4051253Y-1390150D01*
X4051253Y-1390150D02*
X4022682Y-1390150D01*
X4022682Y-1390150D02*
X4003634Y-1399674D01*
X4003634Y-1399674D02*
X3994110Y-1409198D01*
X4203634Y-1523484D02*
X4184587Y-1513960D01*
X4184587Y-1513960D02*
X4175063Y-1504436D01*
X4175063Y-1504436D02*
X4165539Y-1485388D01*
X4165539Y-1485388D02*
X4165539Y-1428246D01*
X4165539Y-1428246D02*
X4175063Y-1409198D01*
X4175063Y-1409198D02*
X4184587Y-1399674D01*
X4184587Y-1399674D02*
X4203634Y-1390150D01*
X4203634Y-1390150D02*
X4232206Y-1390150D01*
X4232206Y-1390150D02*
X4251253Y-1399674D01*
X4251253Y-1399674D02*
X4260777Y-1409198D01*
X4260777Y-1409198D02*
X4270301Y-1428246D01*
X4270301Y-1428246D02*
X4270301Y-1485388D01*
X4270301Y-1485388D02*
X4260777Y-1504436D01*
X4260777Y-1504436D02*
X4251253Y-1513960D01*
X4251253Y-1513960D02*
X4232206Y-1523484D01*
X4232206Y-1523484D02*
X4203634Y-1523484D01*
X4384587Y-1523484D02*
X4365539Y-1513960D01*
X4365539Y-1513960D02*
X4356015Y-1494912D01*
X4356015Y-1494912D02*
X4356015Y-1323484D01*
X4536968Y-1513960D02*
X4517920Y-1523484D01*
X4517920Y-1523484D02*
X4479825Y-1523484D01*
X4479825Y-1523484D02*
X4460777Y-1513960D01*
X4460777Y-1513960D02*
X4451253Y-1494912D01*
X4451253Y-1494912D02*
X4451253Y-1418722D01*
X4451253Y-1418722D02*
X4460777Y-1399674D01*
X4460777Y-1399674D02*
X4479825Y-1390150D01*
X4479825Y-1390150D02*
X4517920Y-1390150D01*
X4517920Y-1390150D02*
X4536968Y-1399674D01*
X4536968Y-1399674D02*
X4546492Y-1418722D01*
X4546492Y-1418722D02*
X4546492Y-1437769D01*
X4546492Y-1437769D02*
X4451253Y-1456817D01*
X4622682Y-1513960D02*
X4641730Y-1523484D01*
X4641730Y-1523484D02*
X4679825Y-1523484D01*
X4679825Y-1523484D02*
X4698873Y-1513960D01*
X4698873Y-1513960D02*
X4708396Y-1494912D01*
X4708396Y-1494912D02*
X4708396Y-1485388D01*
X4708396Y-1485388D02*
X4698873Y-1466341D01*
X4698873Y-1466341D02*
X4679825Y-1456817D01*
X4679825Y-1456817D02*
X4651253Y-1456817D01*
X4651253Y-1456817D02*
X4632206Y-1447293D01*
X4632206Y-1447293D02*
X4622682Y-1428246D01*
X4622682Y-1428246D02*
X4622682Y-1418722D01*
X4622682Y-1418722D02*
X4632206Y-1399674D01*
X4632206Y-1399674D02*
X4651253Y-1390150D01*
X4651253Y-1390150D02*
X4679825Y-1390150D01*
X4679825Y-1390150D02*
X4698873Y-1399674D01*
X4775063Y-1599674D02*
X4784587Y-1590150D01*
X4784587Y-1590150D02*
X4803634Y-1561579D01*
X4803634Y-1561579D02*
X4813158Y-1542531D01*
X4813158Y-1542531D02*
X4822682Y-1513960D01*
X4822682Y-1513960D02*
X4832206Y-1466341D01*
X4832206Y-1466341D02*
X4832206Y-1428246D01*
X4832206Y-1428246D02*
X4822682Y-1380627D01*
X4822682Y-1380627D02*
X4813158Y-1352055D01*
X4813158Y-1352055D02*
X4803634Y-1333008D01*
X4803634Y-1333008D02*
X4784587Y-1304436D01*
X4784587Y-1304436D02*
X4775063Y-1294912D01*
M02*
