G04 #@! TF.GenerationSoftware,KiCad,Pcbnew,9.0.4*
G04 #@! TF.CreationDate,2026-02-24T08:42:58-03:00*
G04 #@! TF.ProjectId,Pcb_Clinicas medicas,5063625f-436c-4696-9e69-636173206d65,rev?*
G04 #@! TF.SameCoordinates,Original*
G04 #@! TF.FileFunction,Other,User*
%FSLAX46Y46*%
G04 Gerber Fmt 4.6, Leading zero omitted, Abs format (unit mm)*
G04 Created by KiCad (PCBNEW 9.0.4) date 2026-02-24 08:42:58*
%MOMM*%
%LPD*%
G01*
G04 APERTURE LIST*
%ADD10C,0.050000*%
G04 APERTURE END LIST*
G04 #@! TO.C,R2*
D10*
X135885000Y-71875000D02*
X143515000Y-71875000D01*
X143515000Y-74875000D01*
X135885000Y-74875000D01*
X135885000Y-71875000D01*
G04 #@! TO.C,R1*
X135860000Y-76175000D02*
X143490000Y-76175000D01*
X143490000Y-79175000D01*
X135860000Y-79175000D01*
X135860000Y-76175000D01*
G04 #@! TO.C,J3*
X140155000Y-56560000D02*
X140155000Y-67720000D01*
X140155000Y-67720000D02*
X143695000Y-67720000D01*
X143695000Y-56560000D02*
X140155000Y-56560000D01*
X143695000Y-67720000D02*
X143695000Y-56560000D01*
G04 #@! TO.C,J2*
X179230000Y-50420000D02*
X179230000Y-61580000D01*
X179230000Y-61580000D02*
X182770000Y-61580000D01*
X182770000Y-50420000D02*
X179230000Y-50420000D01*
X182770000Y-61580000D02*
X182770000Y-50420000D01*
G04 #@! TO.C,LCD1*
X179280000Y-66765000D02*
X179280000Y-103345000D01*
X179280000Y-103345000D02*
X182820000Y-103345000D01*
X182820000Y-66765000D02*
X179280000Y-66765000D01*
X182820000Y-103345000D02*
X182820000Y-66765000D01*
G04 #@! TO.C,RP2350*
X165110000Y-51620000D02*
X172150000Y-51620000D01*
X172150000Y-103920000D01*
X149070000Y-103920000D01*
X149070000Y-51620000D01*
X156110000Y-51620000D01*
X156110000Y-50070000D01*
X165110000Y-50070000D01*
X165110000Y-51620000D01*
G04 #@! TO.C,SD_Card1*
X141005000Y-86755000D02*
X141005000Y-102995000D01*
X141005000Y-102995000D02*
X144545000Y-102995000D01*
X144545000Y-86755000D02*
X141005000Y-86755000D01*
X144545000Y-102995000D02*
X144545000Y-86755000D01*
G04 #@! TD*
M02*
